<svg viewBox="-28 0 511 512" xmlns="http://www.w3.org/2000/svg"><path d="m408 0c-16.773438 0-31.546875 8.742188-40 21.90625-8.453125-13.164062-23.226562-21.90625-40-21.90625s-31.546875 8.742188-40 21.90625c-8.453125-13.164062-23.226562-21.90625-40-21.90625s-31.546875 8.742188-40 21.90625c-8.453125-13.164062-23.226562-21.90625-40-21.90625-23.734375 0-43.460938 17.5-46.953125 40.277344-45.011719 3.554687-80.550781 41.316406-80.550781 87.226562v81.59375c-22.636719 3.605469-39.996094 23.261719-39.996094 46.898438v128.890625c0 70.089843 57.023438 127.113281 127.113281 127.113281h200.769531c70.09375 0 127.117188-57.023438 127.117188-127.113281v-337.386719c0-26.191406-21.308594-47.5-47.5-47.5zm-67.019531 201.648438c-3.894531-1.414063-8.199219.589843-9.613281 4.480468-1.417969 3.894532.589843 8.195313 4.480468 9.613282l.902344.328124c-2.09375 7.28125-3.421875 14.796876-3.949219 22.425782h-.90625c-4.144531 0-7.5 3.359375-7.5 7.5 0 4.144531 3.355469 7.5 7.5 7.5h.90625c.53125 7.632812 1.855469 15.148437 3.949219 22.429687l-.957031.347657c-3.890625 1.417968-5.898438 5.722656-4.480469 9.613281 1.105469 3.046875 3.984375 4.9375 7.046875 4.9375.851563 0 1.71875-.144531 2.566406-.453125l.957031-.351563c3.359376 7.558594 7.585938 14.742188 12.625 21.394531-17.085937 17.316407-40.773437 27.976563-66.507812 27.976563-26.023438 0-49.589844-10.703125-66.542969-27.933594 5.054688-6.667969 9.292969-13.863281 12.660157-21.4375l.960937.351563c.847656.308594 1.710937.453125 2.5625.453125 3.0625 0 5.941406-1.890625 7.050781-4.9375 1.414063-3.894531-.59375-8.195313-4.484375-9.613281l-.957031-.347657c2.09375-7.28125 3.421875-14.796875 3.949219-22.429687h.910156c4.140625 0 7.5-3.355469 7.5-7.5 0-4.140625-3.359375-7.5-7.5-7.5h-.910156c-.527344-7.628906-1.855469-15.144532-3.949219-22.425782l.902344-.328124c3.894531-1.417969 5.898437-5.722657 4.484375-9.613282-1.417969-3.894531-5.71875-5.898437-9.613281-4.480468l-.90625.328124c-3.363282-7.574218-7.601563-14.769531-12.660157-21.4375 16.953125-17.230468 40.519531-27.933593 66.542969-27.933593 25.734375 0 49.425781 10.664062 66.507812 27.976562-5.039062 6.65625-9.265624 13.835938-12.625 21.394531zm-146.375 44.351562c0-19.925781 6.277343-38.414062 16.953125-53.59375 3.265625 4.652344 6.078125 9.578125 8.429687 14.710938l-.234375.085937c-3.894531 1.417969-5.902344 5.722656-4.484375 9.613281 1.109375 3.046875 3.984375 4.9375 7.050781 4.9375.851563 0 1.714844-.144531 2.5625-.453125l.25-.089843c1.550782 5.628906 2.5625 11.417968 3.035157 17.289062h-.300781c-4.144532 0-7.5 3.359375-7.5 7.5 0 4.144531 3.355468 7.5 7.5 7.5h.300781c-.472657 5.871094-1.484375 11.660156-3.035157 17.289062l-.417968-.148437c-3.894532-1.417969-8.195313.589844-9.613282 4.480469-1.414062 3.894531.59375 8.195312 4.484376 9.613281l.402343.144531c-2.351562 5.132813-5.167969 10.0625-8.429687 14.714844-10.671875-15.179688-16.953125-33.667969-16.953125-53.59375zm133.394531-231c17.921875 0 32.5 14.578125 32.5 32.5v37.855469l-8.410156-8.410157c-2.929688-2.925781-7.675782-2.929687-10.605469 0-2.929687 2.929688-2.929687 7.679688 0 10.609376l15.910156 15.910156-15.910156 15.90625c-2.929687 2.933594-2.929687 7.679687 0 10.609375 1.464844 1.464843 3.382813 2.195312 5.304687 2.195312 1.917969 0 3.839844-.730469 5.304688-2.195312l8.40625-8.410157v43.882813c-.347656-.3125-.679688-.640625-1.027344-.945313-17.878906-15.691406-40.359375-24.980468-63.972656-26.613281v-16.324219l8.410156 8.410157c1.464844 1.460937 3.382813 2.195312 5.304688 2.195312 1.917968 0 3.839844-.734375 5.304687-2.195312 2.925781-2.929688 2.925781-7.679688 0-10.609375l-15.910156-15.910156 15.910156-15.910157c2.925781-2.929687 2.925781-7.675781 0-10.605469-2.929687-2.929687-7.679687-2.929687-10.609375 0l-8.40625 8.410157v-37.855469c-.003906-17.921875 14.574219-32.5 32.496094-32.5zm-80 0c17.921875 0 32.5 14.578125 32.5 32.5v37.855469l-8.410156-8.410157c-2.929688-2.925781-7.675782-2.929687-10.605469 0-2.929687 2.929688-2.929687 7.679688 0 10.609376l15.910156 15.910156-15.910156 15.90625c-2.929687 2.933594-2.929687 7.679687 0 10.609375 1.464844 1.464843 3.382813 2.195312 5.304687 2.195312 1.917969 0 3.839844-.730469 5.304688-2.195312l8.40625-8.410157v16.300782c-24.902344 1.710937-47.519531 11.867187-65 27.625v-43.925782l8.410156 8.410157c1.464844 1.460937 3.382813 2.195312 5.304688 2.195312 1.917968 0 3.839844-.734375 5.304687-2.195312 2.925781-2.929688 2.925781-7.679688 0-10.609375l-15.910156-15.910156 15.910156-15.910157c2.925781-2.929687 2.925781-7.675781 0-10.605469-2.929687-2.929687-7.679687-2.929687-10.609375 0l-8.40625 8.410157v-37.855469c-.003906-17.921875 14.574219-32.5 32.496094-32.5zm192.5 369.886719c0 61.816406-50.296875 112.113281-112.113281 112.113281h-200.773438c-61.816406 0-112.113281-50.296875-112.113281-112.113281v-128.890625c0-17.917969 14.578125-32.496094 32.496094-32.496094 17.925781 0 32.507812 14.582031 32.507812 32.503906v70.03125c0 15.164063 12.335938 27.5 27.5 27.5h70.03125c56.5 0 102.464844 45.96875 102.464844 102.46875 0 4.140625 3.355469 7.5 7.5 7.5s7.5-3.359375 7.5-7.5c0-64.773437-52.695312-117.46875-117.464844-117.46875h-42.535156v-156.621094c0-4.140624-3.355469-7.5-7.5-7.5s-7.5 3.359376-7.5 7.5v156.621094h-12.496094c-6.894531 0-12.5-5.605468-12.5-12.5v-70.03125c0-23.640625-17.363281-43.300781-40.007812-46.90625v-81.59375c0-37.445312 28.535156-68.351562 65.003906-72.117187v98.527343c0 4.144532 3.355469 7.5 7.5 7.5s7.5-3.355468 7.5-7.5v-106.414062c0-17.921875 14.578125-32.5 32.5-32.5s32.5 14.578125 32.5 32.5v37.855469l-8.410156-8.410157c-2.929688-2.925781-7.675782-2.929687-10.605469 0-2.929687 2.929688-2.929687 7.679688 0 10.609376l15.910156 15.910156-15.910156 15.90625c-2.929687 2.933594-2.929687 7.679687 0 10.609375 1.464844 1.464843 3.382813 2.195312 5.304687 2.195312 1.917969 0 3.839844-.730469 5.304688-2.195312l8.40625-8.410157v60.535157c-13.128906 17.929687-20.890625 40.023437-20.890625 63.894531 0 26.671875 9.6875 51.121094 25.726563 70.023438.316406.472656.691406.914062 1.128906 1.3125 19.882812 22.699218 49.0625 37.058593 81.535156 37.058593 26.324219 0 51.707031-9.554687 71.46875-26.898437 3.792969-3.328125 7.320312-6.902344 10.585938-10.683594.132812-.152344.265624-.304688.386718-.464844 13.355469-15.648437 22.070313-34.816406 24.914063-55.316406.570312-4.101562-2.292969-7.890625-6.394531-8.457031-4.097657-.570313-7.894532 2.292969-8.460938 6.394531-2.085938 15.019531-7.769531 28.8125-16.082031 40.59375-3.253907-4.644531-6.0625-9.558594-8.40625-14.683594l.402343-.144531c3.890626-1.417969 5.898438-5.722656 4.480469-9.613281-1.414062-3.890625-5.714843-5.898438-9.613281-4.480469l-.414062.148437c-1.550782-5.628906-2.5625-11.417968-3.039063-17.289062h.304687c4.144532 0 7.5-3.355469 7.5-7.5 0-4.140625-3.355468-7.5-7.5-7.5h-.304687c.476563-5.871094 1.488281-11.65625 3.039063-17.289062l.25.089843c.847656.308594 1.710937.453125 2.5625.453125 3.0625 0 5.941406-1.890625 7.050781-4.9375 1.414062-3.890625-.59375-8.195312-4.484375-9.613281l-.234375-.085937c2.34375-5.121094 5.152343-10.035157 8.40625-14.679688 8.308593 11.78125 13.996093 25.574219 16.082031 40.589844.566406 4.105468 4.359375 6.964844 8.460938 6.398437 4.101562-.570312 6.964843-4.355469 6.394531-8.460937-2.46875-17.789063-9.351563-34.578125-19.855469-48.933594v-60.460938l8.40625 8.410157c1.464844 1.460937 3.386719 2.195312 5.304688 2.195312 1.921874 0 3.839843-.734375 5.304687-2.195312 2.929687-2.929688 2.929687-7.679688 0-10.609375l-15.910156-15.910156 15.910156-15.910157c2.929687-2.929687 2.929687-7.675781 0-10.605469-2.929687-2.929687-7.675781-2.929687-10.605469 0l-8.410156 8.410157v-37.855469c0-17.921875 14.578125-32.5 32.5-32.5s32.5 14.578125 32.5 32.5zm0 0"></path></svg>
